<svg width="4324" height="2608" viewBox="0 0 4324 2608" fill="none" xmlns="http://www.w3.org/2000/svg">
<g filter="url(#filter0_n_5922_22878)">
<g filter="url(#filter1_f_5922_22878)">
<path d="M2617.67 690.749C2607.13 693.887 2596.59 697.026 2586.05 700.165C2589.66 732.065 2553.44 776.967 2522.62 809.852C2406.33 927.489 2254.09 1017.86 2097.39 1052.68C1988.09 1082.47 1922.79 1004.86 1822.84 920.548C1723.57 836.117 1584.33 795.123 1456.7 795.391L1471.47 908.807C1609.17 873.626 1745.82 830.928 1871.93 746.405C1934.11 703.096 1995.75 647.107 2028.25 563.097C2060.37 478.565 2048.9 383.003 1994.15 304.69L1917.91 403.382C1917.89 403.372 1918.22 403.511 1918.88 403.794C1919.83 404.193 1919.9 404.224 1920.3 404.395C1921.01 404.696 1921.87 405.063 1922.89 405.493C1925.39 406.557 1926.36 406.974 1928.27 407.786C2108.38 485.899 2292.19 555.893 2470.35 633.687C2512.72 653.259 2565.16 676.741 2586.05 700.165C2596.59 697.026 2607.13 693.887 2617.67 690.749C2588.02 628.049 2545.05 608.467 2504.46 575.374C2339.33 457.93 2162.04 368.602 1978.9 289.14C1976.95 288.306 1975.95 287.88 1973.36 286.78C1972.32 286.335 1971.42 285.954 1970.68 285.639C1970.25 285.46 1970.18 285.43 1969.18 285.004C1968.46 284.701 1968.09 284.542 1968.06 284.533L1743.28 189.7L1891.82 383.224C1948.21 463.05 1904.93 574.929 1800.04 643.551C1698.64 714.614 1571.44 760.194 1441.93 797.315L1456.7 910.731C1569.11 908.107 1672.75 933.753 1761.39 1000.83C1806.97 1033.09 1849.19 1076.45 1910.32 1111.1C1971.44 1147.61 2053.9 1151.13 2116.58 1132.23C2293.13 1080.7 2441.94 975.302 2556.85 839.639C2585.92 798.308 2627.45 759.882 2617.67 690.749ZM2586.05 700.165L2617.67 690.749L2586.05 700.165Z" fill="#007EFF"/>
</g>
<g filter="url(#filter2_f_5922_22878)">
<path d="M3018.41 1101.78C3024.06 1111.22 3029.71 1120.66 3035.36 1130.1C3084.86 1105.26 3150.2 1110.6 3209.45 1120.67C3393.31 1157.49 3584.53 1257.19 3666.96 1415.02C3726.8 1529.72 3581.07 1649.18 3490.08 1772.98C3390.75 1896.49 3309.7 2065.26 3326.63 2239.49L3432.76 2206.29C3346.32 2051.93 3222.38 1891.11 3026.35 1834.32C2828.91 1779.28 2631.42 1859.83 2487.45 1984.83L2590.82 2057.36C2603.42 2028.65 2616.32 1999.74 2629.47 1970.46C2733.86 1740.85 2830.22 1507.1 2939.65 1282.09C2967.71 1227.84 2996.94 1166.15 3035.36 1130.1C3029.71 1120.66 3024.06 1111.22 3018.41 1101.78C2955.91 1140.49 2921.21 1195.49 2881.91 1247.01C2733.15 1458.14 2617.3 1685.62 2511.81 1917.57C2498.48 1947.25 2485.62 1976.14 2472.64 2005.93L2576.01 2078.47C2688.41 1980.25 2852.38 1914.47 2993.44 1954.42C3137.36 1992.12 3250.89 2121.52 3333.9 2262.73L3440.02 2229.53C3423.26 2089.12 3480.1 1953.39 3569.35 1831.82C3613 1769.96 3663.77 1710.94 3708.29 1640.42C3752.77 1575.13 3788.77 1463.23 3736.55 1378.8C3621.09 1188.53 3414.88 1104.96 3216.02 1075.77C3151.27 1069.64 3082.12 1065.3 3018.41 1101.78ZM3035.36 1130.1L3018.41 1101.78L3035.36 1130.1Z" fill="#007EFF"/>
</g>
<g filter="url(#filter3_f_5922_22878)">
<path d="M1105.92 1236.02C1120.34 1259.64 1134.75 1283.25 1149.17 1306.87C1152.47 1306.68 1174.35 1307.78 1193.56 1314.77C1213.6 1321.34 1234.61 1331.07 1255.04 1342.15C1393.88 1420.6 1519.99 1547.69 1577.76 1678.77C1594.08 1721.85 1590.54 1737.58 1574.76 1773.48C1558.05 1809.95 1520.29 1861.65 1485.66 1924.69C1410.05 2050.77 1385.87 2234.07 1419.26 2379.03L1685.61 2274.13C1612 2137.94 1530.35 2001.8 1382.97 1887.02C1248.21 1762.17 932.627 1734.27 777.185 1927.72L1060.81 2063.38C1062.07 2057.13 1064.09 2047.28 1065.52 2040.34C1107.41 1842.17 1125.87 1637.25 1138.45 1435.3C1140.25 1410.35 1142.33 1385.08 1144.82 1361.54C1146.18 1349.51 1147.75 1337.81 1149.2 1327.73C1150.27 1322.12 1150.63 1318.01 1151.48 1313.65C1151.88 1309.76 1152.63 1306.91 1149.17 1306.87C1134.75 1283.25 1120.34 1259.64 1105.92 1236.02C1058.36 1263.02 1047.34 1286.11 1026.98 1309.36C1008.86 1332.48 992.752 1356.37 977.793 1379.96C860.838 1569.85 791.343 1769.04 747.731 1974.9C746.207 1982.3 744.201 1992.13 742.652 1999.91L1026.28 2135.58C1064.46 2103.27 1111.39 2083.3 1197.75 2142.01C1281.56 2199.51 1363.51 2305.32 1434.61 2418L1700.95 2313.1C1672.99 2213.74 1672.86 2132.8 1713.34 2035.14C1732.74 1984.9 1765.81 1931.9 1791.91 1849.8C1821.91 1768.07 1803.61 1647.71 1757.34 1581.78C1641.73 1406.07 1480.18 1299.11 1298.39 1236.59C1242.64 1223.77 1190.19 1194.91 1105.92 1236.02ZM1149.17 1306.87L1105.92 1236.02L1149.17 1306.87Z" fill="#007EFF"/>
</g>
</g>
<defs>
<filter id="filter0_n_5922_22878" x="0" y="22.781" width="4324" height="2432" filterUnits="userSpaceOnUse" color-interpolation-filters="sRGB">
<feFlood flood-opacity="0" result="BackgroundImageFix"/>
<feBlend mode="normal" in="SourceGraphic" in2="BackgroundImageFix" result="shape"/>
<feTurbulence type="fractalNoise" baseFrequency="2 2" stitchTiles="stitch" numOctaves="3" result="noise" seed="3458" />
<feColorMatrix in="noise" type="luminanceToAlpha" result="alphaNoise" />
<feComponentTransfer in="alphaNoise" result="coloredNoise1">
<feFuncA type="discrete" tableValues="0 0 0 0 0 0 1 1 1 1 1 1 1 1 1 1 1 1 1 1 1 1 1 1 1 1 1 1 1 1 1 1 1 1 1 1 1 1 1 1 1 1 1 1 0 0 0 0 0 0 0 0 0 0 0 0 0 0 0 0 0 0 0 0 0 0 0 0 0 0 0 0 0 0 0 0 0 0 0 0 0 0 0 0 0 0 0 0 0 0 0 0 0 0 0 0 0 0 0 0 "/>
</feComponentTransfer>
<feComposite operator="in" in2="shape" in="coloredNoise1" result="noise1Clipped" />
<feFlood flood-color="rgba(0, 0, 0, 0.25)" result="color1Flood" />
<feComposite operator="in" in2="noise1Clipped" in="color1Flood" result="color1" />
<feMerge result="effect1_noise_5922_22878">
<feMergeNode in="shape" />
<feMergeNode in="color1" />
</feMerge>
</filter>
<filter id="filter1_f_5922_22878" x="1252.23" y="-4.57764e-05" width="1556.6" height="1333.19" filterUnits="userSpaceOnUse" color-interpolation-filters="sRGB">
<feFlood flood-opacity="0" result="BackgroundImageFix"/>
<feBlend mode="normal" in="SourceGraphic" in2="BackgroundImageFix" result="shape"/>
<feGaussianBlur stdDeviation="94.85" result="effect1_foregroundBlur_5922_22878"/>
</filter>
<filter id="filter2_f_5922_22878" x="2282.94" y="881.963" width="1669.14" height="1570.47" filterUnits="userSpaceOnUse" color-interpolation-filters="sRGB">
<feFlood flood-opacity="0" result="BackgroundImageFix"/>
<feBlend mode="normal" in="SourceGraphic" in2="BackgroundImageFix" result="shape"/>
<feGaussianBlur stdDeviation="94.85" result="effect1_foregroundBlur_5922_22878"/>
</filter>
<filter id="filter3_f_5922_22878" x="552.952" y="1025.04" width="1443.31" height="1582.65" filterUnits="userSpaceOnUse" color-interpolation-filters="sRGB">
<feFlood flood-opacity="0" result="BackgroundImageFix"/>
<feBlend mode="normal" in="SourceGraphic" in2="BackgroundImageFix" result="shape"/>
<feGaussianBlur stdDeviation="94.85" result="effect1_foregroundBlur_5922_22878"/>
</filter>
</defs>
</svg>
